<?xml version="1.0" encoding="utf-8"?>
<svg xmlns="http://www.w3.org/2000/svg" viewBox="82.918 87.278 117.115 165.378" class="css-1j8o68f">
  <defs id="SvgjsDefs3631">
    <linearGradient id="SvgjsLinearGradient3636">
      <stop id="SvgjsStop3637" stop-color="#834f2a" offset="0"/>
      <stop id="SvgjsStop3638" stop-color="#dba173" offset="0.5"/>
      <stop id="SvgjsStop3639" stop-color=" #834F2A" offset="1"/>
    </linearGradient>
  </defs>
  <g transform="matrix(1, 0, 0, 1, -0.068741, -0.102246)">
    <g id="SvgjsG3632" featurekey="symbolFeature-0" transform="matrix(4.417388, 0, 0, 4.417388, -68.963639, -88.480287)" fill="url(#SvgjsLinearGradient3636)">
      <path xmlns="http://www.w3.org/2000/svg" d="M58.75,29.184c-1.011,0-1.833,0.822-1.833,1.833c0,1.011,0.822,1.833,1.833,1.833c1.011,0,1.833-0.822,1.833-1.833  C60.583,30.006,59.761,29.184,58.75,29.184z M58.75,31.851c-0.459,0-0.833-0.374-0.833-0.833s0.374-0.833,0.833-0.833  s0.833,0.374,0.833,0.833S59.209,31.851,58.75,31.851z M47.541,77.031c4.388,0,12.688-0.627,12.688-3  c0-0.125-0.031-0.246-0.077-0.365h0.015V50.57c0.009-0.021,0.024-0.056,0.027-0.065l-0.027-0.011v-6.369  c0-0.281-0.12-0.547-0.348-0.794c0.028-0.093,0.062-0.184,0.062-0.283c0-2.326-8.072-2.941-12.34-2.941s-12.339,0.615-12.339,2.941  c0,0.099,0.034,0.19,0.063,0.283c-0.228,0.248-0.348,0.513-0.348,0.794v23.743c-0.014,0.066-0.022,0.109-0.023,0.115l0.023,0.004  v5.68h0.014c-0.045,0.119-0.077,0.24-0.077,0.365C34.854,76.404,43.153,77.031,47.541,77.031z M47.541,76.031  c-7.623,0-11.596-1.37-11.686-1.979c1.836,1.263,7.154,1.842,11.686,1.842c4.533,0,9.851-0.58,11.686-1.843  C59.136,74.662,55.163,76.031,47.541,76.031z M47.541,41.107c7.482,0,11.34,1.36,11.34,1.941c0,0.006-0.007,0.013-0.008,0.02  l-0.055,0.069c-0.175,0.217-0.564,0.435-1.13,0.643c-6.464,2.084-16.417,1.461-20.286,0.002c-0.569-0.208-1.272-0.38-1.2-0.733  C36.396,42.385,40.06,41.107,47.541,41.107z M35.971,44.18c0.007,0.004,0.015,0.009,0.022,0.013  c0.139,0.091,2.668,1.567,10.955,1.791c8.964-0.114,12.06-1.726,12.217-1.834c-0.106,0.611-4.057,1.975-11.623,1.975  c-7.571,0-11.522-1.366-11.623-1.976C35.934,44.16,35.955,44.169,35.971,44.18z M35.917,45.398c2.32,1.332,8.178,1.727,11.625,1.727  s9.305-0.395,11.625-1.727v1.609c-0.483,0.885-3.649,6.012-13.325,8.33c-5.722,1.371-8.592,6.111-9.925,9.382V45.398z   M46.075,56.309c7.789-1.866,11.518-5.441,13.092-7.492v1.534c-0.555,1.173-3.874,7.316-13.45,9.61  c-5.706,1.367-8.508,5.466-9.8,8.284C35.917,68.246,38.361,58.157,46.075,56.309z M35.917,71.221  c0.098-0.456,1.922-8.345,10.033-10.287c7.789-1.866,11.594-6.094,13.217-8.559c0,0,0.01,17.447,0,20.309  c-2.458,1.482-5.469,2.21-11.625,2.21c-6.155,0-10.062-0.989-11.337-1.854C35.625,72.719,35.917,71.221,35.917,71.221z   M47.702,43.759c0.048,0.036,3.248,0.959,3.248,0.959c0.346,0.246,4.805-0.608,4.805-0.608c0.245-0.033,0.429-0.241,0.433-0.488  c0.004-0.247-0.174-0.46-0.418-0.5l-7.273-1.203c-0.45,0-1.232,0.085-1.419,0.653C46.884,43.154,47.5,43.609,47.702,43.759z   M52.336,43.564l-1.212,0.165L48.3,42.923C48.343,42.917,52.336,43.564,52.336,43.564z M52.583,35.571  c0,1.285,1.046,2.331,2.331,2.331s2.331-1.046,2.331-2.331s-1.046-2.331-2.331-2.331S52.583,34.286,52.583,35.571z M56.245,35.571  c0,0.734-0.597,1.331-1.331,1.331s-1.331-0.597-1.331-1.331s0.597-1.331,1.331-1.331S56.245,34.837,56.245,35.571z M59.938,24.28  c0-2.343-1.907-4.25-4.25-4.25s-4.25,1.907-4.25,4.25s1.907,4.25,4.25,4.25S59.938,26.624,59.938,24.28z M55.688,27.53  c-1.792,0-3.25-1.458-3.25-3.25s1.458-3.25,3.25-3.25s3.25,1.458,3.25,3.25S57.479,27.53,55.688,27.53z"/>
    </g>
  </g>
</svg>