<?xml version="1.0" encoding="utf-8"?>
<svg xmlns="http://www.w3.org/2000/svg" viewBox="124.846 87.317 300.414 53.779" class="css-1j8o68f">
  <defs id="SvgjsDefs3631">
    <linearGradient id="SvgjsLinearGradient3640">
      <stop id="SvgjsStop3641" stop-color="#834f2a" offset="0"/>
      <stop id="SvgjsStop3642" stop-color="#dba173" offset="0.5"/>
      <stop id="SvgjsStop3643" stop-color=" #834F2A" offset="1"/>
    </linearGradient>
  </defs>
  <g id="SvgjsG3633" featurekey="nameFeature-0" transform="matrix(1.676074, 0, 0, 1.676074, 125.251467, 71.053186)" fill="url(#SvgjsLinearGradient3640)">
    <path d="M22.246 27.344 l1.9531 0 l-0.25391 1.1914 l-10.078 0 l-2.6563 11.543 l-9.8242 0 l2.9688 -12.734 l-1.9922 0 l3.8086 -16.484 l20.742 0 l-1.7188 7.4023 l-10.918 0 l-0.68359 2.8711 l10.059 0 z M27.1875 27.578 l-2.0508 0 l1.6992 -7.5586 l9.3164 0 l-1.6992 7.5586 l2.0703 0 l-2.7539 12.422 l-9.3164 0 z M38.555 10.469000000000001 l-1.6211 7.0703 l-9.6484 0 l1.6211 -7.0703 l9.6484 0 z M56.718843750000005 27.266 l-6.1328 5.8008 l8.2227 0 l-1.6211 6.9141 l-19.941 0 l1.25 -5.5078 l7.6758 -7.207 l-1.7578 0 l2.5586 -2.4219 l-7.5781 0 l1.5234 -6.7969 l19.316 0 l-1.2109 5.3906 l-4.082 3.8281 l1.7773 0 z M78.769625 27.266 l-6.1328 5.8008 l8.2227 0 l-1.6211 6.9141 l-19.941 0 l1.25 -5.5078 l7.6758 -7.207 l-1.7578 0 l2.5586 -2.4219 l-7.5781 0 l1.5234 -6.7969 l19.316 0 l-1.2109 5.3906 l-4.082 3.8281 l1.7773 0 z M107.83240624999999 30.664099999999998 c-1.0742 4.4141 -4.7852 7.6172 -9.1016 8.8477 c-1.3672 0.35156 -3.0664 0.48828 -5.1367 0.48828 l-12.031 0 l2.9297 -12.734 l-2.2266 0 l3.8086 -16.406 c3.3789 0 13.633 -0.64453 17.09 0.625 c2.9297 1.1523 4.3164 3.5742 3.5938 6.7383 c-0.54688 2.3633 -1.9727 4.1992 -3.8867 5.625 c1.6016 0.80078 2.5391 2.0117 2.8516 3.418 l2.1484 0 c0.25391 1.0938 0.19531 2.1484 -0.039063 3.3984 z M97.83240624999999 30.5469 c0.625 -2.7148 -2.0508 -2.1875 -3.8086 -2.1875 l-1.0547 4.5117 c2.168 0 4.2969 0.25391 4.8633 -2.3242 z M96.66040625 20 c0.44922 -1.8164 -1.0547 -2.0313 -2.4805 -2.0313 l-0.74219 3.5352 c1.0938 0.097656 2.9297 -0.058594 3.2227 -1.5039 z M110.54690625 27.578 l-2.1094 0 c0.85938 -3.75 1.8945 -7.5586 2.3438 -9.375 l9.2773 0 l-1.9336 9.375 l2.1289 0 l-1.0352 4.8828 c-0.46875 2.1094 2.0117 1.5625 2.3828 0.56641 l1.25 -5.4492 l-2.0703 0 l2.1094 -9.375 l9.2969 0 l-2.1484 9.375 l2.1094 0 l-2.832 12.422 l-9.2969 0 l0.097656 -0.48828 c-3.7109 1.3086 -10.195 1.4844 -10.879 -3.418 c-0.17578 -1.4844 0.48828 -4.9609 1.3086 -8.5156 z M151.66025 27.266 l-6.1328 5.8008 l8.2227 0 l-1.6211 6.9141 l-19.941 0 l1.25 -5.5078 l7.6758 -7.207 l-1.7578 0 l2.5586 -2.4219 l-7.5781 0 l1.5234 -6.7969 l19.316 0 l-1.2109 5.3906 l-4.082 3.8281 l1.7773 0 z M173.71103125 27.266 l-6.1328 5.8008 l8.2227 0 l-1.6211 6.9141 l-19.941 0 l1.25 -5.5078 l7.6758 -7.207 l-1.7578 0 l2.5586 -2.4219 l-7.5781 0 l1.5234 -6.7969 l19.316 0 l-1.2109 5.3906 l-4.082 3.8281 l1.7773 0 z"/>
  </g>
</svg>